<svg enable-background="new 0 0 140 140" height="512" viewBox="0 0 140 140" width="512" xmlns="http://www.w3.org/2000/svg"><circle cx="70.418" cy="70" fill="#ea8953" r="64"/><path d="m131.6950684 88.4874268-56.3793869-56.2424279c-1.5499268-2.3400269-7.0100098-5.4100342-11.9899902-5.4100342-.5799561 0-1.1599121.0400391-1.7299805.1300049-5.7600098.9299927-10.3099365 5.6199951-10.5300293 9.5499878-.0898438 1.4300537.3100586 4.0500488.8400879 6.8000488.25 1.6900024.6899414 3.5099487.9599609 5.1799927-.2199707-.0900269-.4399414-.1100464-.6398926-.0499878-.8300781.25-1.1101074 1.7699585-.6201172 3.3899536.25.8400269.6600342 1.5300293 1.1101074 1.9700317l.8798828.8699951c.6500244 3.0200195 1.8900146 5.6599731 3.5200195 7.6599731v3.3300133l-2.0500488 3.5900269-1.4599609.7999878-9.0899658 4.9799805c-1.4100342.7800293-2.6900635 1.7800293-3.7700195 2.9700317-2.4200439 2.6699829-3.75 6.1299438-3.75 9.7299805v11.4299927l34.8001709 34.8001709c28.3105468-.6001587 52.0922851-19.5681762 59.8991623-45.4777221z" opacity=".1"/><path d="m57.11129 54.254627h14.074693v19.148129h-14.074693z" fill="#f7be56"/><g fill="#d5d6db"><path d="m75.4936295 99.1622925v-28.6630554l-2.2608109-1.2381363-9.0841293 1.797142-9.0841904-1.797142-.3888016.2129287v29.688263z"/><path d="m61.9709511 99.1622925c-3.788311-13.316391-5.5263596-25.6694717-6.032917-29.7292099l-.8734818-.1738205-1.4601402.7995911-9.0910988 4.9801025c-1.4123383.7735519-2.6855888 1.7773743-3.7633018 2.9680862-2.4205322 2.6638718-3.7590332 6.1317062-3.7590332 9.7298813v11.4253693z"/><path d="m91.3072052 99.1622925v-11.4253693c0-3.598175-1.3384476-7.0660095-3.7589798-9.7298813-1.0820389-1.190712-2.3552856-2.1945343-3.7676773-2.9680862l-9.0650101-4.9670334-1.4818573-.8126602-.8647842.1695023c-.5065536 4.0562744-2.2416382 16.4129257-6.0294571 29.7335281z"/></g><path d="m60.7271957 99.1622925h6.8377991l-1.4881821-21.5829468 1.8494873-3.2034302-1.8863754-3.2674408-1.8912353-.0502319-1.8816262.0502319-1.886486 3.2674408 1.8490524 3.2025681z" fill="#27a2db"/><path d="m71.1859818 65.6669235-7.0373459 5.3913193 5.8493652 7.5478439 3.2347946-9.3449554z" fill="#ebf0f3"/><path d="m57.11129 65.6669235 7.0373459 5.3913193-5.8493615 7.5478439-3.2347946-9.3449554z" fill="#ebf0f3"/><g fill="#fcd462"><ellipse cx="75.12" cy="50.719" rx="3.066" ry="1.576" transform="matrix(.231 -.973 .973 .231 8.431 112.104)"/><ellipse cx="53.11" cy="51.38" rx="1.576" ry="3.066" transform="matrix(.957 -.289 .289 .957 -12.575 17.525)"/><path d="m63.5337029 31.6804714c-3.5041733.1051788-9.4704895 3.1674099-11.3751144 6.9215107-1.3990021 2.7574959.8155937 8.2626457.9274178 11.9882584.2640648 8.7977715 5.4054108 15.781868 11.4835052 15.5994339 6.0780945-.1824265 10.791275-7.4623146 10.5272141-16.2600822-.0799179-2.662384 1.1099548-10.8737221.2357712-13.3940239-2.0145113-5.8079243-7.5600664-4.9823208-11.7987939-4.8550969z"/></g><path d="m75.618309 32.8181305c-1.044342-2.6557827-8.2649155-6.7798176-14.0246544-5.8490276s-10.3044319 5.6146679-10.5308418 9.5488033c-.2264328 3.9341621 2.756916 16.7870293 2.756916 16.7870293l.8343353.2505722s-.0306625-1.7106514.3967285-8.1312637c.3762283-5.6521988 2.7285423-7.7842827 8.0399094-6.4295807-.7034988 1.3730087-2.3911133 2.1671486-2.3911133 2.1671486 1.0422325.1072464 2.6191177-.3015327 2.6191177-.3015327.1106682 1.1706581-3.2544937 2.6710663-3.2544937 2.6710663 6.6685219-.3265991 9.0004539-4.3607483 10.1962776-5.9656296.6090469 2.4764252-.9000626 5.0655251-.9000626 5.0655251 2.346283-.5885353 3.5579987-2.3117065 4.1776199-3.7762489.1863632.8040085.1159744 1.9356766-.0419159 3.6040726-.3661499 3.8694534.4902573 7.1509819.0703735 9.2306366-.419899 2.079628-.419899 2.079628-.419899 2.079628l.4818878-.0144615s3.4377136-7.1310997 3.5952759-11.0631676c.157593-3.9320948-.5611265-7.2177584-1.6054609-9.8735697z" fill="#2f4859"/><path d="m76.139343 79.455849h27.450039v15.736141h-27.450039z" fill="#ebf0f3"/><path d="m103.3231659 77.5986786h-11.3066406c-.704834 0-1.3522949-.3882446-1.6842041-1.0099487l-.7988281-1.4959717c-.3319092-.6216431-.9793701-1.0098877-1.6842041-1.0098877h-11.4436036c-1.0544434 0-1.9093018.8547974-1.9093018 1.9092407v21.2609253c0 1.0544434.8548584 1.9092407 1.9093018 1.9092407h26.9174805c1.0544434 0 1.9091797-.8547974 1.9091797-1.9092407v-17.7451172c0-1.0544433-.8547363-1.9092407-1.9091797-1.9092407z" fill="#f7be56"/><path d="m102.5890579 79.4558563h-25.4494629c-.5524902 0-1.0002441.4478149-1.0002441 1.0002441v13.7356567c0 .5523682.4477539 1.0002441 1.0002441 1.0002441h25.4494629c.5524902 0 1.0002441-.447876 1.0002441-1.0002441v-13.7356566c.0000001-.5524292-.4477538-1.0002442-1.0002441-1.0002442z" fill="#ebf0f3"/><path d="m76.4055634 86.7137146h11.3066406c.704834 0 1.3522949-.3882446 1.6842041-1.0099487l.7988281-1.4959717c.3319092-.6216431.9793701-1.0098877 1.6842041-1.0098877h11.4436035c1.0544434 0 1.9093018.8547974 1.9093018 1.9092407v15.2609253c0 1.0544434-.8548584 1.9092407-1.9093018 1.9092407h-26.9174804c-1.0544434 0-1.9091797-.8547974-1.9091797-1.9092407v-11.7451172c0-1.0544433.8547363-1.9092407 1.9091797-1.9092407z" fill="#fcd462"/></svg>